<svg version="1.1" viewBox="0.0 0.0 465.3622047244094 395.7821522309711" fill="none" stroke="none" stroke-linecap="square" stroke-miterlimit="10" xmlns:xlink="http://www.w3.org/1999/xlink" xmlns="http://www.w3.org/2000/svg"><clipPath id="p.0"><path d="m0 0l465.3622 0l0 395.78217l-465.3622 0l0 -395.78217z" clip-rule="nonzero"/></clipPath><g clip-path="url(#p.0)"><path fill="#000000" fill-opacity="0.0" d="m0 0l465.3622 0l0 395.78217l-465.3622 0z" fill-rule="evenodd"/><path fill="#000000" d="m11.666667 12.857145l55.43307 0l0 57.385826l-55.43307 0z" fill-rule="evenodd"/><path stroke="#000000" stroke-width="1.0" stroke-linejoin="round" stroke-linecap="butt" d="m11.666667 12.857145l55.43307 0l0 57.385826l-55.43307 0z" fill-rule="evenodd"/><path fill="#000000" d="m88.97113 12.857145l55.433075 0l0 57.385826l-55.433075 0z" fill-rule="evenodd"/><path stroke="#000000" stroke-width="1.0" stroke-linejoin="round" stroke-linecap="butt" d="m88.97113 12.857145l55.433075 0l0 57.385826l-55.433075 0z" fill-rule="evenodd"/><path fill="#000000" d="m166.27559 12.857145l55.433075 0l0 57.385826l-55.433075 0z" fill-rule="evenodd"/><path stroke="#000000" stroke-width="1.0" stroke-linejoin="round" stroke-linecap="butt" d="m166.27559 12.857145l55.433075 0l0 57.385826l-55.433075 0z" fill-rule="evenodd"/><path fill="#000000" d="m243.58005 12.857145l55.433075 0l0 57.385826l-55.433075 0z" fill-rule="evenodd"/><path stroke="#000000" stroke-width="1.0" stroke-linejoin="round" stroke-linecap="butt" d="m243.58005 12.857145l55.433075 0l0 57.385826l-55.433075 0z" fill-rule="evenodd"/><path fill="#000000" d="m320.88452 12.857145l55.433075 0l0 57.385826l-55.433075 0z" fill-rule="evenodd"/><path stroke="#000000" stroke-width="1.0" stroke-linejoin="round" stroke-linecap="butt" d="m320.88452 12.857145l55.433075 0l0 57.385826l-55.433075 0z" fill-rule="evenodd"/><path fill="#000000" d="m398.18896 12.857145l55.433075 0l0 57.385826l-55.433075 0z" fill-rule="evenodd"/><path stroke="#000000" stroke-width="1.0" stroke-linejoin="round" stroke-linecap="butt" d="m398.18896 12.857145l55.433075 0l0 57.385826l-55.433075 0z" fill-rule="evenodd"/><path fill="#000000" d="m11.666667 92.18408l55.43307 0l0 57.38582l-55.43307 0z" fill-rule="evenodd"/><path stroke="#000000" stroke-width="1.0" stroke-linejoin="round" stroke-linecap="butt" d="m11.666667 92.18408l55.43307 0l0 57.38582l-55.43307 0z" fill-rule="evenodd"/><path fill="#000000" d="m88.97113 92.18408l55.433075 0l0 57.38582l-55.433075 0z" fill-rule="evenodd"/><path stroke="#000000" stroke-width="1.0" stroke-linejoin="round" stroke-linecap="butt" d="m88.97113 92.18408l55.433075 0l0 57.38582l-55.433075 0z" fill-rule="evenodd"/><path fill="#000000" d="m166.27559 92.18408l55.433075 0l0 57.38582l-55.433075 0z" fill-rule="evenodd"/><path stroke="#000000" stroke-width="1.0" stroke-linejoin="round" stroke-linecap="butt" d="m166.27559 92.18408l55.433075 0l0 57.38582l-55.433075 0z" fill-rule="evenodd"/><path fill="#000000" d="m243.58005 92.18408l55.433075 0l0 57.38582l-55.433075 0z" fill-rule="evenodd"/><path stroke="#000000" stroke-width="1.0" stroke-linejoin="round" stroke-linecap="butt" d="m243.58005 92.18408l55.433075 0l0 57.38582l-55.433075 0z" fill-rule="evenodd"/><path fill="#000000" d="m320.88452 92.18408l55.433075 0l0 57.38582l-55.433075 0z" fill-rule="evenodd"/><path stroke="#000000" stroke-width="1.0" stroke-linejoin="round" stroke-linecap="butt" d="m320.88452 92.18408l55.433075 0l0 57.38582l-55.433075 0z" fill-rule="evenodd"/><path fill="#000000" d="m398.18896 92.18408l55.433075 0l0 57.38582l-55.433075 0z" fill-rule="evenodd"/><path stroke="#000000" stroke-width="1.0" stroke-linejoin="round" stroke-linecap="butt" d="m398.18896 92.18408l55.433075 0l0 57.38582l-55.433075 0z" fill-rule="evenodd"/><path fill="#000000" d="m11.684548 203.3847l55.433075 0l0 17.826767l-55.433075 0z" fill-rule="evenodd"/><path stroke="#000000" stroke-width="1.0" stroke-linejoin="round" stroke-linecap="butt" d="m11.684548 203.3847l55.433075 0l0 17.826767l-55.433075 0z" fill-rule="evenodd"/><path fill="#000000" d="m88.98901 203.3847l55.433075 0l0 17.826767l-55.433075 0z" fill-rule="evenodd"/><path stroke="#000000" stroke-width="1.0" stroke-linejoin="round" stroke-linecap="butt" d="m88.98901 203.3847l55.433075 0l0 17.826767l-55.433075 0z" fill-rule="evenodd"/><path fill="#000000" d="m166.29347 203.3847l55.433075 0l0 17.826767l-55.433075 0z" fill-rule="evenodd"/><path stroke="#000000" stroke-width="1.0" stroke-linejoin="round" stroke-linecap="butt" d="m166.29347 203.3847l55.433075 0l0 17.826767l-55.433075 0z" fill-rule="evenodd"/><path fill="#000000" d="m243.59793 203.3847l55.433075 0l0 17.826767l-55.433075 0z" fill-rule="evenodd"/><path stroke="#000000" stroke-width="1.0" stroke-linejoin="round" stroke-linecap="butt" d="m243.59793 203.3847l55.433075 0l0 17.826767l-55.433075 0z" fill-rule="evenodd"/><path fill="#000000" d="m320.9024 203.3847l55.433075 0l0 17.826767l-55.433075 0z" fill-rule="evenodd"/><path stroke="#000000" stroke-width="1.0" stroke-linejoin="round" stroke-linecap="butt" d="m320.9024 203.3847l55.433075 0l0 17.826767l-55.433075 0z" fill-rule="evenodd"/><path fill="#000000" d="m398.20685 203.3847l55.433075 0l0 17.826767l-55.433075 0z" fill-rule="evenodd"/><path stroke="#000000" stroke-width="1.0" stroke-linejoin="round" stroke-linecap="butt" d="m398.20685 203.3847l55.433075 0l0 17.826767l-55.433075 0z" fill-rule="evenodd"/><path fill="#000000" d="m11.684548 235.26247l55.433075 0l0 17.826782l-55.433075 0z" fill-rule="evenodd"/><path stroke="#000000" stroke-width="1.0" stroke-linejoin="round" stroke-linecap="butt" d="m11.684548 235.26247l55.433075 0l0 17.826782l-55.433075 0z" fill-rule="evenodd"/><path fill="#000000" d="m88.98901 235.26247l55.433075 0l0 17.826782l-55.433075 0z" fill-rule="evenodd"/><path stroke="#000000" stroke-width="1.0" stroke-linejoin="round" stroke-linecap="butt" d="m88.98901 235.26247l55.433075 0l0 17.826782l-55.433075 0z" fill-rule="evenodd"/><path fill="#000000" fill-opacity="0.0" d="m-2.7360318 249.77574l504.15747 0l0 112.62993l-504.15747 0z" fill-rule="evenodd"/><path fill="#000000" d="m10.373343 357.64825q-0.625 0 -1.34375 -0.40625q-0.71875 -0.421875 -0.71875 -1.140625q0 -0.8125 0.765625 -1.328125q0.78125 -0.515625 1.609375 -0.828125q1.53125 -0.515625 2.65625 -1.171875q1.140625 -0.671875 1.140625 -2.71875l0 -23.828125q0 -2.046875 -0.625 -3.53125q-0.609375 -1.5 -2.359375 -1.796875q-0.40625 -0.109375 -0.828125 -0.515625q-0.40625 -0.40625 -0.40625 -1.4375q0 -1.546875 1.140625 -1.84375q2.453125 -0.625 5.531249 -1.5q3.078125 -0.875 6.0 -1.890625q2.9375 -1.03125 4.890625 -2.0625q0.40625 -0.203125 0.703125 -0.40625q0.3125 -0.203125 0.625 -0.203125q1.03125 0 1.03125 1.234375q0 0.8125 -0.265625 2.71875q-0.25 1.890625 -0.25 3.328125q0 1.03125 0.203125 1.234375l0.203125 0q3.281252 -3.28125 6.984377 -5.125q3.703125 -1.859375 8.109375 -1.859375q3.078125 0 5.796875 2.375q2.71875 2.359375 3.953125 5.75l0.515625 0q2.984375 -3.90625 6.78125 -6.015625q3.796875 -2.109375 8.515625 -2.109375q3.1875 0 5.796875 1.75q2.625 1.75 4.203125 5.03125q1.59375 3.28125 1.59375 8.015625l0 22.78125q0 2.046875 1.125 2.671875q1.140625 0.609375 2.671875 1.125q0.828125 0.3125 1.4375 0.828125q0.625 0.515625 0.625 1.328125q0 0.71875 -0.5625 1.140625q-0.5625 0.40625 -1.1875 0.40625q-2.046875 0 -4.0 -0.15625q-1.953125 -0.15625 -3.796875 -0.25q-1.84375 -0.109375 -3.703125 -0.109375q-1.734375 0 -3.328125 0.109375q-1.59375 0.09375 -3.234375 0.25q-1.640625 0.15625 -3.703125 0.15625q-0.609375 0 -1.125 -0.40625q-0.515625 -0.421875 -0.515625 -1.140625q0 -0.8125 0.5625 -1.328125q0.5625 -0.515625 1.390625 -0.828125q1.328125 -0.40625 1.890625 -1.015625q0.578125 -0.625 0.578125 -2.0625l0 -20.9375q0 -2.5625 -0.625 -4.359375q-0.609375 -1.796875 -1.796875 -2.765625q-1.171875 -0.984375 -2.71875 -0.984375q-1.015625 0 -2.453125 0.5625q-1.4375 0.5625 -2.875 1.796875q-1.140625 1.03125 -1.140625 3.59375l0 22.375q0 2.046875 0.609375 2.671875q0.625 0.609375 2.171875 1.125q0.8125 0.3125 1.421875 0.828125q0.625 0.515625 0.625 1.328125q0 0.71875 -0.5625 1.140625q-0.5625 0.40625 -1.1875 0.40625q-2.046875 0 -3.75 -0.15625q-1.6875 -0.15625 -3.28125 -0.25q-1.578125 -0.109375 -3.4375 -0.109375q-1.734375 0 -3.328125 0.109375q-1.59375 0.09375 -3.234375 0.25q-1.640625 0.15625 -3.703125 0.15625q-0.609375 0 -1.125 -0.40625q-0.515625 -0.421875 -0.515625 -1.140625q0 -0.8125 0.5625 -1.328125q0.5625 -0.515625 1.390625 -0.828125q1.328125 -0.40625 1.890625 -1.015625q0.578125 -0.625 0.578125 -2.0625l0 -20.9375q0 -2.5625 -0.625 -4.3125q-0.609375 -1.75 -1.75 -2.71875q-1.125 -0.984375 -2.65625 -0.984375q-1.03125 0 -2.46875 0.515625q-1.4375 0.515625 -3.078127 1.640625q-1.03125 0.71875 -1.03125 3.296875l0 22.78125q0 1.75 0.453125 2.515625q0.46875 0.765625 2.015625 1.28125q0.8125019 0.3125 1.3750019 0.828125q0.578125 0.515625 0.578125 1.328125q0 0.625 -0.515625 1.09375q-0.515625 0.453125 -1.125 0.453125q-2.062502 0 -3.765627 -0.15625q-1.6875 -0.15625 -3.234375 -0.25q-1.53125 -0.109375 -3.375 -0.109375q-1.75 0 -3.59375 0.109375q-1.84375 0.09375 -3.796874 0.25q-1.953125 0.15625 -4.0 0.15625zm101.0065 1.125q-5.546875 0 -9.96875 -2.96875q-4.40625 -2.984375 -6.96875 -8.0625q-2.5625 -5.09375 -2.5625 -11.453125q0 -6.5625 3.078125 -11.953125q3.078125 -5.390625 8.3125 -8.578125q5.234375 -3.1875 11.609375 -3.1875q4.40625 0 8.0 1.953125q3.59375 1.953125 5.7499924 5.1875q2.15625 3.234375 2.15625 7.34375q0 4.0 -3.1874924 4.0l-20.328125 0q-1.4375 0 -2.109375 0.828125q-0.65625 0.8125 -0.65625 2.765625q0 3.703125 1.640625 6.734375q1.640625 3.015625 4.515625 4.765625q2.875 1.75 6.671875 1.75q2.984375 0 5.5 -1.125q2.515625 -1.140625 5.078125 -3.09375q0.31249237 -0.203125 0.7187424 -0.453125q0.40625 -0.265625 0.71875 -0.265625q1.125 0 1.125 1.34375q0 0.921875 -0.609375 2.765625q-0.921875 2.765625 -3.3906174 5.5q-2.46875 2.71875 -6.3125 4.46875q-3.84375 1.734375 -8.78125 1.734375zm-4.109375 -32.234375l5.453125 0q2.96875 0 3.9375 -0.09375q0.984375 -0.109375 1.8125 -0.421875q0.5 -0.203125 0.8125 -1.125q0.3125 -0.921875 0.3125 -1.953125q0 -2.671875 -1.703125 -4.359375q-1.6875 -1.703125 -4.359375 -1.703125q-2.046875 0 -3.84375 1.1875q-1.796875 1.1875 -2.9375 3.03125q-1.125 1.84375 -1.015625 3.890625q0 1.546875 1.53125 1.546875zm49.079887 32.234375q-7.1875 0 -10.6875 -3.484375q-3.484375 -3.5 -3.484375 -9.859375l0 -23.609375q0 -0.921875 -0.71875 -1.328125q-0.71875 -0.421875 -2.46875 -0.515625l-1.53125 0q-0.71875 0 -1.234375 -1.28125q-0.515625 -1.296875 -0.515625 -2.3125q0 -0.21875 0.09375 -0.515625q0.109375 -0.3125 0.53125 -0.421875q2.5625 -0.8125 5.640625 -2.859375q3.078125 -2.0625 5.953125 -4.375q2.875 -2.3125 4.625 -3.75q0.8125 -0.609375 1.375 -1.015625q0.578125 -0.421875 1.390625 -0.421875q1.03125 0 1.4375 0.421875q0.40625 0.40625 0.203125 1.84375l-0.71875 6.359375q-0.09375 1.34375 0.625 1.8125q0.71875 0.453125 1.953125 0.453125l12.3125 0q0.203125 0 0.5 0.71875q0.3125 0.71875 0.3125 1.234375q0 1.640625 -0.40625 3.03125q-0.40625 1.375 -0.921875 1.375l-9.4375 0q-2.265625 0 -3.1875 0.625q-0.921875 0.609375 -0.921875 1.9375l0 19.203125q0 4.828125 1.796875 7.140625q1.796875 2.3125 4.765625 2.3125q2.875 0 4.203125 -0.609375q1.34375 -0.625 2.46875 -1.046875q0.421875 -0.203125 0.71875 -0.203125q0.515625 0 0.828125 0.671875q0.3125 0.671875 0.3125 1.59375q0 0.609375 -2.265625 2.3125q-2.25 1.6875 -5.84375 3.125q-3.59375 1.4375 -7.703125 1.4375zm20.736923 -1.125q-0.71875 0 -1.390625 -0.40625q-0.671875 -0.421875 -0.671875 -1.140625q0 -0.8125 0.671875 -1.328125q0.671875 -0.515625 1.703125 -0.828125q2.359375 -0.71875 3.078125 -1.484375q0.71875 -0.765625 0.71875 -2.40625l0 -23.921875q0 -2.0625 -0.515625 -3.28125q-0.515625 -1.234375 -2.265625 -1.75q-0.515625 -0.203125 -0.984375 -0.5625q-0.453125 -0.359375 -0.453125 -1.390625q0 -1.546875 1.34375 -1.84375q3.375 -0.828125 7.53125 -2.109375q4.171875 -1.28125 7.25 -2.71875q0.515625 -0.3125 1.328125 -0.71875q0.828125 -0.40625 1.234375 -0.40625q1.03125 0 1.03125 1.21875q0 0.515625 -0.0625 2.171875q-0.046875 1.640625 -0.15625 3.328125q-0.09375 1.6875 -0.09375 2.71875q0 1.03125 0.40625 1.03125q1.546875 -2.15625 3.640625 -4.3125q2.109375 -2.15625 4.625 -3.59375q2.515625 -1.4375 5.078125 -1.4375q3.796875 0 5.34375 1.4375q1.546875 1.4375 1.546875 3.6875q0 1.65625 -0.9375 3.65625q-0.921875 2.0 -2.359375 3.4375q-1.4375 1.4375 -3.078125 1.4375q-1.03125 0 -2.109375 -0.515625q-1.0625 -0.515625 -2.203125 -1.03125q-1.015625 -0.515625 -2.046875 -0.96875q-1.03125 -0.46875 -1.84375 -0.46875q-2.671875 0 -4.53125 2.0q-1.84375 2.0 -1.84375 7.953125l0 15.8125q0 2.265625 1.234375 3.296875q1.234375 1.015625 4.109375 1.84375q1.125 0.296875 1.6875 0.765625q0.5625 0.46875 0.5625 1.28125q0 1.546875 -1.640625 1.546875q-3.078125 0 -6.78125 -0.265625q-3.6875 -0.25 -6.359375 -0.25q-1.734375 0 -3.6875 0.109375q-1.953125 0.09375 -4.015625 0.25q-2.046875 0.15625 -4.09375 0.15625zm63.13568 1.125q-6.265625 0 -11.296875 -2.765625q-5.03125 -2.78125 -8.015625 -7.703125q-2.96875 -4.9375 -2.96875 -11.1875q0 -5.03125 1.890625 -9.5q1.90625 -4.46875 5.234375 -7.84375q3.34375 -3.390625 7.8125 -5.34375q4.46875 -1.953125 9.59375 -1.953125q6.46875 0 11.656235 2.984375q5.1875153 2.96875 8.26564 7.90625q3.078125 4.921875 3.078125 10.765625q0 6.671875 -2.828125 12.328125q-2.8125 5.640625 -8.42189 8.984375q-5.5937347 3.328125 -13.999985 3.328125zm1.9375 -4.828125q1.859375 0 3.1875 -0.765625q1.34375 -0.765625 2.265625 -2.203125q1.234375 -2.0625 1.734375 -5.65625q0.515625 -3.59375 0.515625 -8.71875q0 -5.75 -1.125 -10.0625q-1.125 -4.3125 -3.140625 -6.765625q-2.0 -2.46875 -4.65625 -2.46875q-1.34375 0 -2.46875 0.46875q-1.125 0.453125 -1.953125 1.265625q-1.75 1.859375 -2.421875 5.703125q-0.65625 3.84375 -0.65625 9.796875q0 4.828125 1.125 9.296875q1.140625 4.46875 3.140625 7.296875q2.0 2.8125 4.453125 2.8125zm29.575867 3.703125q-0.625 0 -1.34375 -0.40625q-0.71875 -0.421875 -0.71875 -1.140625q0 -0.8125 0.765625 -1.328125q0.78125 -0.515625 1.609375 -0.828125q1.53125 -0.515625 2.65625 -1.171875q1.140625 -0.671875 1.140625 -2.71875l0 -23.828125q0 -2.046875 -0.625 -3.53125q-0.609375 -1.5 -2.359375 -1.796875q-0.40625 -0.109375 -0.828125 -0.515625q-0.40625 -0.40625 -0.40625 -1.4375q0 -1.546875 1.140625 -1.84375q2.453125 -0.625 5.53125 -1.5q3.078125 -0.875 6.0 -1.890625q2.9375 -1.03125 4.890625 -2.0625q0.40625 -0.203125 0.703125 -0.40625q0.3125 -0.203125 0.625 -0.203125q1.03125 0 1.03125 1.234375q0 0.8125 -0.265625 2.71875q-0.25 1.890625 -0.25 3.328125q0 1.03125 0.203125 1.234375l0.203125 0q3.28125 -3.28125 6.984375 -5.125q3.703125 -1.859375 8.109375 -1.859375q3.078125 0 5.796875 2.375q2.71875 2.359375 3.953125 5.75l0.515625 0q2.984375 -3.90625 6.78125 -6.015625q3.796875 -2.109375 8.515625 -2.109375q3.1875 0 5.796875 1.75q2.625 1.75 4.203125 5.03125q1.59375 3.28125 1.59375 8.015625l0 22.78125q0 2.046875 1.125 2.671875q1.140625 0.609375 2.671875 1.125q0.828125 0.3125 1.4375 0.828125q0.625 0.515625 0.625 1.328125q0 0.71875 -0.5625 1.140625q-0.5625 0.40625 -1.1875 0.40625q-2.046875 0 -4.0 -0.15625q-1.953125 -0.15625 -3.796875 -0.25q-1.84375 -0.109375 -3.703125 -0.109375q-1.734375 0 -3.328125 0.109375q-1.59375 0.09375 -3.234375 0.25q-1.640625 0.15625 -3.703125 0.15625q-0.609375 0 -1.125 -0.40625q-0.515625 -0.421875 -0.515625 -1.140625q0 -0.8125 0.5625 -1.328125q0.5625 -0.515625 1.390625 -0.828125q1.328125 -0.40625 1.890625 -1.015625q0.578125 -0.625 0.578125 -2.0625l0 -20.9375q0 -2.5625 -0.625 -4.359375q-0.609375 -1.796875 -1.796875 -2.765625q-1.171875 -0.984375 -2.71875 -0.984375q-1.015625 0 -2.453125 0.5625q-1.4375 0.5625 -2.875 1.796875q-1.140625 1.03125 -1.140625 3.59375l0 22.375q0 2.046875 0.609375 2.671875q0.625 0.609375 2.171875 1.125q0.8125 0.3125 1.421875 0.828125q0.625 0.515625 0.625 1.328125q0 0.71875 -0.5625 1.140625q-0.5625 0.40625 -1.1875 0.40625q-2.046875 0 -3.75 -0.15625q-1.6875 -0.15625 -3.28125 -0.25q-1.578125 -0.109375 -3.4375 -0.109375q-1.734375 0 -3.328125 0.109375q-1.59375 0.09375 -3.234375 0.25q-1.640625 0.15625 -3.703125 0.15625q-0.609375 0 -1.125 -0.40625q-0.515625 -0.421875 -0.515625 -1.140625q0 -0.8125 0.5625 -1.328125q0.5625 -0.515625 1.390625 -0.828125q1.328125 -0.40625 1.890625 -1.015625q0.578125 -0.625 0.578125 -2.0625l0 -20.9375q0 -2.5625 -0.625 -4.3125q-0.609375 -1.75 -1.75 -2.71875q-1.125 -0.984375 -2.65625 -0.984375q-1.03125 0 -2.46875 0.515625q-1.4375 0.515625 -3.078125 1.640625q-1.03125 0.71875 -1.03125 3.296875l0 22.78125q0 1.75 0.453125 2.515625q0.46875 0.765625 2.015625 1.28125q0.8125 0.3125 1.375 0.828125q0.578125 0.515625 0.578125 1.328125q0 0.625 -0.515625 1.09375q-0.515625 0.453125 -1.125 0.453125q-2.0625 0 -3.765625 -0.15625q-1.6875 -0.15625 -3.234375 -0.25q-1.53125 -0.109375 -3.375 -0.109375q-1.75 0 -3.59375 0.109375q-1.84375 0.09375 -3.796875 0.25q-1.953125 0.15625 -4.0 0.15625zm92.897125 1.125q-2.96875 0 -5.4375 -1.28125q-2.46875 -1.28125 -3.90625 -3.484375q-1.4375 -2.21875 -1.4375 -4.890625q0 -3.59375 2.3125 -6.046875q2.3125 -2.46875 6.734375 -4.421875l8.828125 -3.890625q2.046875 -0.9375 2.5625 -1.703125q0.515625 -0.765625 0.515625 -2.71875l0.09375 -5.640625q0.109375 -2.984375 -0.921875 -4.5625q-1.03125 -1.59375 -3.1875 -1.59375q-1.21875 0 -2.5625 0.5625q-1.328125 0.5625 -1.953125 1.28125q-0.296875 0.40625 -0.40625 0.921875q-0.09375 0.515625 -0.09375 1.03125q0 0.609375 0.09375 1.59375q0.109375 0.96875 0.109375 1.578125q0 0.71875 -1.75 1.703125q-1.75 0.96875 -4.015625 1.75q-2.25 0.765625 -3.890625 0.765625q-0.8125 0 -1.390625 -0.671875q-0.5625 -0.671875 -0.5625 -1.6875q0 -1.65625 1.125 -3.1875q1.140625 -1.546875 3.8125 -3.703125q2.765625 -2.25 6.046875 -4.0q3.28125 -1.75 6.46875 -2.828125q3.1875 -1.078125 5.4375 -1.078125q5.859375 0 9.34375 3.75q3.5 3.75 3.28125 10.015625l-0.5 19.90625q-0.109375 2.375 0.765625 4.0625q0.875 1.6875 2.203125 1.6875q1.84375 0 3.28125 -1.328125q0.3125 -0.3125 0.625 -0.3125q0.515625 0 0.875 0.359375q0.359375 0.359375 0.359375 0.875q0 1.234375 -2.0625 3.28125q-1.953125 1.953125 -4.21875 2.921875q-2.25 0.984375 -4.703125 0.984375q-5.953125 0 -9.96875 -5.953125l-0.203125 0q-3.390625 3.1875 -6.0625 4.5625q-2.65625 1.390625 -5.640625 1.390625zm6.375 -7.078125q0.921875 0 1.53125 -0.3125q0.625 -0.3125 1.125 -1.03125q0.3125 -0.40625 0.46875 -1.015625q0.15625 -0.625 0.15625 -1.34375l0.3125 -7.90625q0 -0.921875 -0.3125 -1.171875q-0.3125 -0.265625 -0.71875 -0.265625q-0.203125 0 -0.46875 0.0625q-0.25 0.046875 -0.5625 0.25q-2.46875 1.328125 -3.75 2.71875q-1.28125 1.390625 -1.28125 4.984375q0 2.96875 1.171875 4.0q1.1875 1.03125 2.328125 1.03125zm29.559265 32.015625q-0.71875 0 -1.390625 -0.40625q-0.65625 -0.40625 -0.65625 -1.125q0 -0.828125 0.65625 -1.34375q0.671875 -0.5 1.703125 -0.8125q2.359375 -0.71875 3.078125 -1.5q0.71875 -0.765625 0.71875 -2.40625l0 -48.546875q0 -1.34375 -0.515625 -2.515625q-0.515625 -1.1875 -1.4375 -2.0q-0.921875 -0.828125 -2.265625 -1.03125q-0.609375 -0.203125 -0.96875 -0.5625q-0.359375 -0.359375 -0.359375 -1.390625q0 -0.921875 0.359375 -1.328125q0.359375 -0.421875 0.875 -0.515625q3.484375 -0.828125 7.890625 -2.203125q4.421875 -1.390625 7.5 -2.9375q0.515625 -0.203125 1.078125 -0.5625q0.5625 -0.359375 0.984375 -0.359375q0.71875 0 0.859375 0.421875q0.15625 0.40625 0.15625 0.921875q0 0.8125 -0.25 2.671875q-0.25 1.84375 -0.25 3.28125q0 1.015625 0.203125 1.234375q1.015625 -1.03125 3.625 -2.78125q2.625 -1.75 6.015625 -3.125q3.390625 -1.390625 6.578125 -1.390625q5.546875 0 9.4375 2.984375q3.90625 2.96875 5.953125 7.59375q2.0625 4.609375 2.0625 9.640625q0 4.828125 -1.859375 9.40625q-1.84375 4.5625 -5.125 8.265625q-3.28125 3.6875 -7.59375 5.84375q-4.3125 2.15625 -9.34375 2.15625q-1.03125 0 -2.515625 -0.265625q-1.484375 -0.25 -3.03125 -0.71875q-1.53125 -0.453125 -2.875 -0.96875q-0.09375 0 -0.203125 0.09375q-0.109375 0.109375 -0.15625 0.359375q-0.046875 0.265625 -0.046875 0.671875l0 16.53125q0 1.4375 0.5625 2.359375q0.5625 0.921875 1.734375 1.53125q1.1875 0.625 3.03125 1.25q1.140625 0.296875 1.703125 0.75q0.5625 0.46875 0.5625 1.296875q0 0.609375 -0.46875 1.0625q-0.453125 0.46875 -1.171875 0.46875q-3.078125 0 -6.734375 -0.25q-3.640625 -0.25 -6.296875 -0.25q-1.75 0 -3.703125 0.09375q-1.953125 0.109375 -4.015625 0.25q-2.046875 0.15625 -4.09375 0.15625zm27.0 -29.5625q1.03125 0 2.515625 -0.8125q1.484375 -0.828125 2.921875 -2.765625q1.4375 -1.953125 2.40625 -5.1875q0.984375 -3.234375 0.984375 -7.96875q0 -5.53125 -1.03125 -8.8125q-1.03125 -3.296875 -2.515625 -4.9375q-1.484375 -1.640625 -3.03125 -2.15625q-1.53125 -0.515625 -2.65625 -0.515625q-1.75 0 -3.546875 0.78125q-1.796875 0.765625 -2.9375 1.84375q-1.125 1.078125 -1.125 2.0q0 0.609375 0 2.984375q0 2.359375 -0.046875 5.390625q-0.046875 3.015625 -0.046875 5.53125q0 2.515625 0 3.34375q0 2.046875 0.875 4.71875q0.875 2.671875 2.65625 4.625q1.796875 1.9375 4.578125 1.9375z" fill-rule="nonzero"/><path fill="#000000" d="m166.29347 235.26247l55.433075 0l0 17.826782l-55.433075 0z" fill-rule="evenodd"/><path stroke="#000000" stroke-width="1.0" stroke-linejoin="round" stroke-linecap="butt" d="m166.29347 235.26247l55.433075 0l0 17.826782l-55.433075 0z" fill-rule="evenodd"/><path fill="#000000" d="m243.59793 235.26247l55.433075 0l0 17.826782l-55.433075 0z" fill-rule="evenodd"/><path stroke="#000000" stroke-width="1.0" stroke-linejoin="round" stroke-linecap="butt" d="m243.59793 235.26247l55.433075 0l0 17.826782l-55.433075 0z" fill-rule="evenodd"/><path fill="#000000" d="m320.9024 235.26247l55.433075 0l0 17.826782l-55.433075 0z" fill-rule="evenodd"/><path stroke="#000000" stroke-width="1.0" stroke-linejoin="round" stroke-linecap="butt" d="m320.9024 235.26247l55.433075 0l0 17.826782l-55.433075 0z" fill-rule="evenodd"/><path fill="#000000" d="m398.20685 235.26247l55.433075 0l0 17.826782l-55.433075 0z" fill-rule="evenodd"/><path stroke="#000000" stroke-width="1.0" stroke-linejoin="round" stroke-linecap="butt" d="m398.20685 235.26247l55.433075 0l0 17.826782l-55.433075 0z" fill-rule="evenodd"/><path fill="#000000" d="m11.684548 267.1376l55.433075 0l0 17.826782l-55.433075 0z" fill-rule="evenodd"/><path stroke="#000000" stroke-width="1.0" stroke-linejoin="round" stroke-linecap="butt" d="m11.684548 267.1376l55.433075 0l0 17.826782l-55.433075 0z" fill-rule="evenodd"/><path fill="#000000" d="m88.98901 267.1376l55.433075 0l0 17.826782l-55.433075 0z" fill-rule="evenodd"/><path stroke="#000000" stroke-width="1.0" stroke-linejoin="round" stroke-linecap="butt" d="m88.98901 267.1376l55.433075 0l0 17.826782l-55.433075 0z" fill-rule="evenodd"/><path fill="#000000" d="m166.29347 267.1376l55.433075 0l0 17.826782l-55.433075 0z" fill-rule="evenodd"/><path stroke="#000000" stroke-width="1.0" stroke-linejoin="round" stroke-linecap="butt" d="m166.29347 267.1376l55.433075 0l0 17.826782l-55.433075 0z" fill-rule="evenodd"/><path fill="#000000" d="m243.59793 267.1376l55.433075 0l0 17.826782l-55.433075 0z" fill-rule="evenodd"/><path stroke="#000000" stroke-width="1.0" stroke-linejoin="round" stroke-linecap="butt" d="m243.59793 267.1376l55.433075 0l0 17.826782l-55.433075 0z" fill-rule="evenodd"/><path fill="#000000" d="m320.9024 267.1376l55.433075 0l0 17.826782l-55.433075 0z" fill-rule="evenodd"/><path stroke="#000000" stroke-width="1.0" stroke-linejoin="round" stroke-linecap="butt" d="m320.9024 267.1376l55.433075 0l0 17.826782l-55.433075 0z" fill-rule="evenodd"/><path fill="#000000" d="m398.20685 267.1376l55.433075 0l0 17.826782l-55.433075 0z" fill-rule="evenodd"/><path stroke="#000000" stroke-width="1.0" stroke-linejoin="round" stroke-linecap="butt" d="m398.20685 267.1376l55.433075 0l0 17.826782l-55.433075 0z" fill-rule="evenodd"/><path fill="#000000" d="m11.684548 171.50806l55.433075 0l0 17.826782l-55.433075 0z" fill-rule="evenodd"/><path stroke="#000000" stroke-width="1.0" stroke-linejoin="round" stroke-linecap="butt" d="m11.684548 171.50806l55.433075 0l0 17.826782l-55.433075 0z" fill-rule="evenodd"/><path fill="#000000" d="m88.98901 171.50806l55.433075 0l0 17.826782l-55.433075 0z" fill-rule="evenodd"/><path stroke="#000000" stroke-width="1.0" stroke-linejoin="round" stroke-linecap="butt" d="m88.98901 171.50806l55.433075 0l0 17.826782l-55.433075 0z" fill-rule="evenodd"/><path fill="#000000" d="m166.29347 171.50806l55.433075 0l0 17.826782l-55.433075 0z" fill-rule="evenodd"/><path stroke="#000000" stroke-width="1.0" stroke-linejoin="round" stroke-linecap="butt" d="m166.29347 171.50806l55.433075 0l0 17.826782l-55.433075 0z" fill-rule="evenodd"/><path fill="#000000" d="m243.59793 171.50806l55.433075 0l0 17.826782l-55.433075 0z" fill-rule="evenodd"/><path stroke="#000000" stroke-width="1.0" stroke-linejoin="round" stroke-linecap="butt" d="m243.59793 171.50806l55.433075 0l0 17.826782l-55.433075 0z" fill-rule="evenodd"/><path fill="#000000" d="m320.9024 171.50806l55.433075 0l0 17.826782l-55.433075 0z" fill-rule="evenodd"/><path stroke="#000000" stroke-width="1.0" stroke-linejoin="round" stroke-linecap="butt" d="m320.9024 171.50806l55.433075 0l0 17.826782l-55.433075 0z" fill-rule="evenodd"/><path fill="#000000" d="m398.20685 171.50806l55.433075 0l0 17.826782l-55.433075 0z" fill-rule="evenodd"/><path stroke="#000000" stroke-width="1.0" stroke-linejoin="round" stroke-linecap="butt" d="m398.20685 171.50806l55.433075 0l0 17.826782l-55.433075 0z" fill-rule="evenodd"/></g></svg>